Coordinates
version=1
nRows=19
nColumns=24
inDegrees=yes

Units are S.I. units (second, meters, Newtons, ...)
Angles are in degrees.

endheader
time	pelvis_tilt	pelvis_list	pelvis_rotation	pelvis_tx	pelvis_ty	pelvis_tz	hip_flexion_r	hip_adduction_r	hip_rotation_r	knee_angle_r	ankle_angle_r	subtalar_angle_r	mtp_angle_r	hip_flexion_l	hip_adduction_l	hip_rotation_l	knee_angle_l	ankle_angle_l	subtalar_angle_l	mtp_angle_l	lumbar_extension	lumbar_bending	lumbar_rotation
      1.79150000	     -0.42674983	      3.11237540	     -4.11172514	      1.36174316	      1.02241114	      0.28447195	     13.94457229	     -7.10153773	     -5.88154150	    -61.31937112	      6.06400362	     -6.54778044	      2.93279027	     13.11101112	      9.27737451	      1.19043773	    -18.06541609	      6.15693019	    -14.34040673	      3.17359600	     -5.37196321	     -5.51505603	      4.42328704
      1.79566667	     -0.37646305	      3.02361820	     -4.02149739	      1.36650179	      1.02329468	      0.28411571	     14.47187874	     -6.94035159	     -5.76530482	    -60.86580330	      6.27668607	     -6.87457751	      2.83243749	     12.58226709	      9.25546662	      1.42092231	    -17.72869084	      6.12706082	    -14.45671548	      3.04503283	     -5.50064811	     -5.40906019	      4.27733129
      1.79983333	     -0.32560043	      2.93859992	     -3.95380411	      1.37128412	      1.02412916	      0.28380081	     14.99143321	     -6.77449189	     -5.62107837	    -60.37952082	      6.45331953	     -7.19161367	      2.71134345	     12.05558862	      9.22503519	      1.58686003	    -17.39230989	      6.11137705	    -14.55427527	      2.89650488	     -5.60055786	     -5.31379100	      4.15431899
      1.80400000	     -0.28898225	      2.85384296	     -3.87409874	      1.37603306	      1.02488738	      0.28349506	     15.51511793	     -6.60389187	     -5.48311994	    -59.86407379	      6.67789189	     -7.51134702	      2.61256901	     11.55632298	      9.19210612	      1.76385851	    -17.08206536	      6.11329572	    -14.61491224	      2.77788509	     -5.72537040	     -5.21717925	      4.06151682
      1.80816667	     -0.27985012	      2.78980343	     -3.82334301	      1.38080848	      1.02551531	      0.28324202	     16.07254694	     -6.45196945	     -5.32492692	    -59.33916507	      6.89664212	     -7.79002344	      2.56280298	     11.09971094	      9.16613691	      1.85990992	    -16.79241916	      6.15765610	    -14.63340755	      2.71902648	     -5.75836305	     -5.14609937	      3.99900284
      1.81233333	     -0.23543316	      2.71527841	     -3.76026396	      1.38555870	      1.02620616	      0.28296041	     16.56946440	     -6.28506841	     -5.16172998	    -58.75597434	      7.02279595	     -8.06395835	      1.94237729	     10.56919513	      9.15614725	      2.14072125	    -16.43091360	      6.06472220	    -14.94677933	      1.98468820	     -5.89410319	     -5.05066105	      3.82164171
      1.81650000	     -0.22935172	      2.65728291	     -3.69950042	      1.39022191	      1.02673205	      0.28275287	     17.11622422	     -6.12343953	     -4.99240247	    -58.16622695	      7.14925672	     -8.44254607	      1.89037538	     10.14220942	      9.12626904	      2.21040367	    -16.17699715	      6.13517101	    -14.86157048	      1.93148197	     -5.97838536	     -5.01222113	      3.78551133
      1.82066667	     -0.21592609	      2.59158687	     -3.65331344	      1.39497262	      1.02727013	      0.28256100	     17.62892706	     -5.94975461	     -4.81116360	    -57.52085031	      7.21065248	     -8.75731894	      1.81643828	      9.67931533	      9.09141728	      2.30959115	    -15.87247016	      6.17893837	    -14.86949880	      1.85702338	     -6.04436533	     -4.93477360	      3.71295080
      1.82483333	     -0.21413646	      2.55105986	     -3.60258706	      1.39970062	      1.02770303	      0.28237230	     18.15452151	     -5.80792946	     -4.63328731	    -56.87850384	      7.38566249	     -8.97149327	      1.78655176	      9.24690008	      9.08122997	      2.38815586	    -15.60220230	      6.24392513	    -14.86578378	      1.82545978	     -6.07923928	     -4.89253967	      3.65954294
      1.82900000	     -0.20735855	      2.48731564	     -3.55229659	      1.40438331	      1.02811473	      0.28221876	     18.65630188	     -5.62377458	     -4.43921868	    -56.17865531	      7.40776191	     -9.30524440	      1.72233731	      8.81997874	      9.04730133	      2.49954656	    -15.35605288	      6.27725569	    -14.92862093	      1.76147611	     -6.18410599	     -4.84413431	      3.56526390
      1.83316667	     -0.20338236	      2.44702081	     -3.49684753	      1.40910010	      1.02847570	      0.28204873	     19.14894235	     -5.47387013	     -4.25112744	    -55.46137841	      7.43380363	     -9.54358902	      1.62572179	      8.38204020	      9.04176293	      2.64149945	    -15.07231355	      6.30379404	    -14.99409883	      1.66083567	     -6.24422368	     -4.80394029	      3.46231059
      1.83733333	     -0.20466277	      2.41180552	     -3.45384468	      1.41375489	      1.02875155	      0.28193614	     19.65185278	     -5.31644698	     -4.03796527	    -54.73977426	      7.53365532	     -9.73549994	      1.56435476	      7.97721977	      9.03125887	      2.71183849	    -14.83967853	      6.36426188	    -15.02987526	      1.59544322	     -6.31143184	     -4.78369957	      3.39754630
      1.84150000	     -0.21316609	      2.37391771	     -3.39587645	      1.41846430	      1.02900846	      0.28179993	     20.13129447	     -5.16275345	     -3.84268015	    -53.97176357	      7.57148599	     -9.90690392	      1.50467229	      7.57468823	      9.02030426	      2.80889528	    -14.60448749	      6.42937934	    -15.06913917	      1.53256498	     -6.35838654	     -4.75085019	      3.32533157
      1.84566667	     -0.21990683	      2.34855286	     -3.33189004	      1.42310937	      1.02919590	      0.28166946	     20.60826312	     -5.02310424	     -3.64565098	    -53.18980866	      7.58864073	    -10.05539583	      1.44092907	      7.18626082	      9.02349956	      2.91722313	    -14.39584084	      6.50460910	    -15.10203795	      1.46187288	     -6.42014977	     -4.73938682	      3.23865997
      1.84983333	     -0.21574836	      2.32790963	     -3.26291121	      1.42783150	      1.02938486	      0.28154413	     21.04951297	     -4.89068366	     -3.45143561	    -52.37270956	      7.57144352	    -10.17153965	      1.34276178	      6.77228837	      9.03262481	      3.04204462	    -14.15738305	      6.55076824	    -15.14649759	      1.34587199	     -6.48587370	     -4.73609824	      3.12471142
      1.85400000	     -0.22641575	      2.30815911	     -3.19371751	      1.43248487	      1.02950167	      0.28143271	     21.49905322	     -4.75507041	     -3.24702915	    -51.53819580	      7.58483089	    -10.23546208	      1.25618976	      6.39344540	      9.03893093	      3.15037307	    -13.95647557	      6.62675745	    -15.18300541	      1.23702314	     -6.54273272	     -4.72900307	      3.03600039
      1.85816667	     -0.25091520	      2.28314642	     -3.11744942	      1.43713044	      1.02955113	      0.28132812	     21.95163697	     -4.61033103	     -3.03673137	    -50.68592748	      7.60137475	    -10.24963964	      1.21244703	      6.04790222	      9.03639499	      3.23738566	    -13.79786054	      6.73641276	    -15.20971571	      1.18192193	     -6.58371259	     -4.71735356	      2.96716270
      1.86233333	     -0.27972591	      2.29800065	     -3.03666566	      1.44178791	      1.02953379	      0.28122750	     22.40458175	     -4.51352653	     -2.81823632	    -49.83370526	      7.62585539	    -10.19316641	      1.19891560	      5.71343742	      9.07663417	      3.33778099	    -13.64582931	      6.83413513	    -15.18407758	      1.16640087	     -6.59835245	     -4.76923270	      2.92043851
      1.86650000	     -0.28567054	      2.25282954	     -2.92542126	      1.44646767	      1.02958340	      0.28108325	     22.78564428	     -4.36386223	     -2.64997949	    -48.89873680	      7.54303537	    -10.21947599	      1.15547136	      5.34059807	      9.05757157	      3.49044894	    -13.48184550	      6.94444476	    -15.24965690	      1.10575071	     -6.68453504	     -4.71809424	      2.77876615
